inDegrees=yes
name=ik_S44_A11_T01
DataType=double
version=3
OpenSimVersion=4.3-2021-08-27-4bc7ad9
endheader
time	pelvis_tilt	pelvis_list	pelvis_rotation	pelvis_tx	pelvis_ty	pelvis_tz	hip_flexion_r	hip_adduction_r	hip_rotation_r	knee_angle_r	knee_angle_r_beta	ankle_angle_r	subtalar_angle_r	mtp_angle_r	hip_flexion_l	hip_adduction_l	hip_rotation_l	knee_angle_l	knee_angle_l_beta	ankle_angle_l	subtalar_angle_l	mtp_angle_l	lumbar_extension	lumbar_bending	lumbar_rotation	arm_flex_r	arm_add_r	arm_rot_r	elbow_flex_r	pro_sup_r	wrist_flex_r	wrist_dev_r	arm_flex_l	arm_add_l	arm_rot_l	elbow_flex_l	pro_sup_l	wrist_flex_l	wrist_dev_l
5.419999999999972	0.4928286079969348	-0.1593912365613517	34.15824427001035	0	0.9399999999999999	0	27.45223027780078	-8.866469375200829	-8.008438714179889	31.01263497014924	0.5412725899482376	0	0	0	27.45223027780078	-8.866469375200829	-8.008438714179889	31.01263497014924	0.5412725899482376	0	0	0	0.426408318432671	-0.6983030834562075	14.54118023079418	70.19624202221038	-19.35095847730749	-1.195144852240884	16.3907580539645	80.26106678543617	0	0	-0.03368681885319309	-2.295899724322376	-3.865399514706341	2.637110810758351	95.10826512539272	0	0
5.439999999999972	0.592089819777843	-0.1662808851445082	34.82488872957111	0	0.9399999999999999	0	27.68883555695606	-8.901654570669491	-8.05448774514945	31.31196389141951	0.5464968651708466	0	0	0	27.68883555695606	-8.901654570669491	-8.05448774514945	31.31196389141951	0.5464968651708466	0	0	0	0.5044191157763736	-0.7652624053413357	14.29649566892538	74.79523376601148	-18.66029459293274	2.28814401653474	17.21699980657376	80.22558051795173	0	0	-0.08004966750425035	-2.434417972542766	-3.685639010947013	2.632171703670998	95.08662493771617	0	0
5.459999999999972	0.6306393255355502	-0.173136138200162	35.15952377672372	0	0.9399999999999999	0	27.69632181598661	-8.903224797447077	-8.056274342901016	31.31945361857675	0.5466275855698165	0	0	0	27.69632181598661	-8.903224797447077	-8.056274342901016	31.31945361857675	0.5466275855698165	0	0	0	0.5322061500267061	-0.7948907707752723	14.16505502343904	76.89332797892428	-18.29896060922274	3.966999832742229	15.14367363045577	79.13632589475976	0	0	-0.05327465669534422	-2.486746944868503	-3.726604757552292	2.673239952990289	95.10950412496928	0	0
5.479999999999971	0.6785695852969179	-0.1948319788605471	35.4387136187356	0	0.9399999999999999	0	27.7070311436854	-8.90547062711722	-8.05883030420849	31.33015995897469	0.5468144464606	0	0	0	27.7070311436854	-8.90547062711722	-8.05883030420849	31.33015995897469	0.5468144464606	0	0	0	0.5588511876960668	-0.8429037920538379	14.12944862624543	76.79382851745355	-18.46360869517425	3.834817754169177	17.64117277675848	80.34868528573506	0	0	-0.01566533533568643	-2.585002697105679	-3.708108883862536	2.642520890557319	95.09680469640104	0	0
5.499999999999971	0.7025251958894013	-0.222943559050198	35.93709875084387	0	0.9399999999999999	0	27.94579094468829	-8.940112072649251	-8.104714095726173	31.63209535644758	0.5520842132748196	0	0	0	27.94579094468829	-8.940112072649251	-8.104714095726173	31.63209535644758	0.5520842132748196	0	0	0	0.5603185542195217	-0.8742060293411129	13.83464023505046	80.64130218868691	-17.54786394726156	7.628234273979139	18.83292301559657	80.6475430060886	0	0	0.03256083635789381	-2.627536726671561	-3.698518375504605	2.676470338549075	95.04653879895476	0	0
5.51999999999997	0.7352537547642847	-0.2496883345533082	36.23194295551097	0	0.9399999999999999	0	27.95290507331324	-8.941577520489121	-8.106396646571328	31.63919958079984	0.5522082053805668	0	0	0	27.95290507331324	-8.941577520489121	-8.106396646571328	31.63919958079984	0.5522082053805668	0	0	0	0.5715411886589062	-0.9146138016387739	13.74805848908131	82.35136742711039	-17.14418065909857	9.016554737492532	18.35322102489411	80.43331204033031	0	0	0.05646731652730735	-2.683162150482015	-3.704467809694425	2.716682492444765	95.02245746052176	0	0
5.53999999999997	0.7544136446051355	-0.2654875763970364	36.51653516476183	0	0.9399999999999999	0	27.9634438369121	-8.943749298010836	-8.10889029038943	31.64970988200039	0.5523916447418927	0	0	0	27.9634438369121	-8.943749298010836	-8.10889029038943	31.64970988200039	0.5523916447418927	0	0	0	0.5777548973481607	-0.9404860734154316	13.57950689498851	83.92223814461583	-16.5943960989795	10.61942110272375	20.1738540701653	81.13089739532045	0	0	0.07848915127549047	-2.734302122096836	-3.804831815939903	2.682780227543127	95.11828975181388	0	0
5.559999999999969	0.7832604320060733	-0.3186424153104958	36.84243928233811	0	0.9399999999999999	0	27.97273958705602	-8.945663833075699	-8.111089488323165	31.65897584159298	0.5525533662451402	0	0	0	27.97273958705602	-8.945663833075699	-8.111089488323165	31.65897584159298	0.5525533662451402	0	0	0	0.5696426448350588	-1.000334340553184	13.5217600504528	85.45013133547343	-16.18913305770151	11.88388013207459	19.72738335416818	80.86040422468467	0	0	0.1206724115140765	-2.815655018737515	-4.001948739974043	2.75690485796013	95.20013750953744	0	0
5.579999999999969	0.8099853145726835	-0.3390865849046483	37.07888045804341	0	0.9399999999999999	0	27.97667906216893	-8.946469407854618	-8.1120174324106	31.66292445159194	0.5526222824904993	0	0	0	27.97667906216893	-8.946469407854618	-8.1120174324106	31.66292445159194	0.5526222824904993	0	0	0	0.5786446639495023	-1.033678327647592	13.35676031959212	86.87676242283854	-15.43722042446549	13.26806764542978	20.38512763498465	81.1523040684899	0	0	0.1062880025199925	-2.883457780158931	-4.183076005966567	2.811558750089314	94.95475607831945	0	0
5.599999999999969	0.8274366938245726	-0.3578829934070291	37.3705418216035	0	0.9399999999999999	0	27.98134209286054	-8.94742432074395	-8.113116900984611	31.66759059616043	0.5527037220765935	0	0	0	27.98134209286054	-8.94742432074395	-8.113116900984611	31.66759059616043	0.5527037220765935	0	0	0	0.5814503692621473	-1.059413404784481	13.26703787355928	88.10840388563278	-14.80423676374459	14.57499895196734	21.0435789762706	81.21468402029213	0	0	0.106558488515106	-2.915425787997882	-4.183457130736612	2.839310786919626	94.98544768727386	0	0
5.619999999999968	0.854125198923275	-0.3791860350009245	37.65991128419265	0	0.9399999999999999	0	27.99125745576966	-8.949461964834025	-8.115460327729386	31.67747493014042	0.552876236248911	0	0	0	27.99125745576966	-8.949461964834025	-8.115460327729386	31.67747493014042	0.552876236248911	0	0	0	0.5896711423226898	-1.093064570231525	13.18173448901194	89.2507084739884	-14.16983260001603	15.84558479846164	21.72797024955752	80.90075401712718	0	0	0.09430014476901491	-2.98581812603187	-4.217912874917525	2.842646017329989	94.99318786857896	0	0
